/* XPM */
static char *_601623866537[] = {
/* columns rows colors chars-per-pixel */
"48 48 8 1 ",
"  c #3B1725",
". c #242234",
"X c #73172D",
"o c #B4202A",
"O c #DF3E23",
"+ c #FA6A0A",
"@ c #F9A31B",
"# c None",
/* pixels */
"###################X X   XX  ###################",
"###############XXX OXX  XXX      ###############",
"#############XXXX XOXXXX XXX       #############",
"###########XXXXXXXX+XXXXXXXX X       ###########",
"##########XXXXXX XX+XXX    XX     ++OO##########",
"#########XXXXXXXXXXX+    X  X  X+++    #########",
"#######XXXXX  XXXXXX+  XX++++++OO+      .#######",
"###### XXXXXXXXXXX  + ++++OOX+++O        .######",
"######XXXXX XXXXX XXO++o@+ XXXXX++        ######",
"#####XXXX XXX  XXXXX+Oo@+X  XXXXX+        .#####",
"####XXX XXXX  XXXXXX+OO++X  XXXXXX+       ..####",
"###  XXXXXXXX XXXXXX+o++XX  XXXXXX +      ...###",
"###XX   XXXXXXXXXXXXO++XX  XXX XX  O       ..###",
"##X    XXXXXXXXXXXX+XXXX   XXXXXX   O     ....##",
"##XX  XXXXXXXXXXXX++XX    XXXXXXX  XXO    . ..##",
"#XXXXXXXXXXXXXXXX++XX XXXXXXXXXXX   +@     ....#",
"#XXXXXXXXXXXXXOO+XXXXXXXXXXXXXXXX   ++    . ...#",
"#XXXXXXXXXO++OOXXXXXXXXXXXXXXXXXXX   ++   . ...#",
"#OXXXX+X++OXXX X XXXXXXXXXXXXXXXXX    +    ....#",
"XXXO++++oXXXX XXX XXXXX  XXXXXX  X X  Oo++. ....",
"XXXXXXXO+XXXXXXXX  XXXXXXXXXXXXX      oO  OO++..",
"XXX XXXXX+XXXXXXXX XXXXXXXXXXX  X    ++    ...O.",
"XXXXX  XXX+XXXXXX   XXXXXXXXX XX     ++   .....O",
"X XXXXX  XX+XXXXX   XXXXXXXXXXX     ++O+  . ....",
"   XXXXXXXX+OXXXXX  XXXXXXXXXX   X ++OoO . .....",
"  X XXXXXX+OO X XX  XXXXX  OXX X   ++ O  . .....",
"    XXXXXXO+XX     XXXXXXX XO    ++O+   . ......",
"   X XXXX++XXXX    XXXXXXXXX O++++OO@  . .......",
"      XX+++XXXXXXXXXXXXXXXXX+++O+ +@+  . .......",
"#    X +XX++XXXXXXXXXXXXXXXX+Oo+   ++O. . .....#",
"#     +XXXXX+O+XXXXXXXXXXXX +oO+    +O . ......#",
"#     + XXXXX+X++OO+XXXXX  ++O+      ++++......#",
"#        XXX+XXXXX+++XX   ++OO+     . . ++.....#",
"##       XX+     X+o+XXX +OOO@++   . . ...+...##",
"## .      ++     +++o+++++OOO@++   . .........##",
"### .    +oO+ XX+  +O++OOOO@oOO+  . .......O.###",
"###. .  ++OoOO++    +OO++OOO@ooO+. ........O.###",
"####.. . ++++   O  O   ++++++OOO++ .........####",
"#####.. . +      OO     ++++++O+O++........#####",
"######.. .+.               . .++++........######",
"######...O . . . . . . . . . . .++........######",
"#######..O... . . . . . . . ......+......#######",
"#########....... . . . . ..........+...#########",
"##########........................O...##########",
"###########.......................O..###########",
"#############......................#############",
"###############..................###############",
"###################..........###################"
};
